<svg viewBox="0 0 512.00165 512" xmlns="http://www.w3.org/2000/svg"><path d="m191.734375 216.898438c-3.941406 0-7.8125 1.597656-10.601563 4.386718-2.800781 2.800782-4.398437 6.660156-4.398437 10.613282 0 3.949218 1.597656 7.808593 4.398437 10.609374 2.789063 2.789063 6.660157 4.390626 10.601563 4.390626 3.949219 0 7.820313-1.601563 10.609375-4.390626 2.789062-2.800781 4.398438-6.660156 4.398438-10.609374 0-3.953126-1.609376-7.8125-4.398438-10.613282-2.789062-2.789062-6.660156-4.386718-10.609375-4.386718zm0 0"/><path d="m335.273438 231.898438c0-3.953126-1.609376-7.8125-4.402344-10.613282-2.789063-2.789062-6.660156-4.386718-10.597656-4.386718-3.953126 0-7.820313 1.597656-10.609376 4.386718-2.792968 2.800782-4.390624 6.660156-4.390624 10.613282 0 3.949218 1.597656 7.808593 4.390624 10.609374 2.789063 2.789063 6.65625 4.390626 10.609376 4.390626 3.949218 0 7.808593-1.601563 10.597656-4.390626 2.789062-2.789062 4.402344-6.660156 4.402344-10.609374zm0 0"/><path d="m265.050781 281.164062h-16.070312c-9.40625 0-17.179688 4.113282-21.320313 11.285157s-3.820312 15.960937.882813 24.113281l8.039062 13.914062c4.703125 8.148438 12.148438 12.820313 20.433594 12.820313 8.28125 0 15.730469-4.671875 20.433594-12.820313l8.039062-13.917968c4.703125-8.148438 5.023438-16.9375.878907-24.109375-4.140626-7.171875-11.914063-11.285157-21.316407-11.285157zm0 0"/><path d="m501.546875 270.292969c7.894531-2.511719 12.253906-10.949219 9.742187-18.84375-2.511718-7.894531-10.945312-12.253907-18.839843-9.742188l-6.976563 2.21875c-5.957031-14.273437-14.308594-27.390625-24.652344-38.792969 12.101563-7.777343 22.632813-17.847656 31.039063-29.832031 13.175781-18.789062 20.140625-40.882812 20.140625-63.902343 0-61.425782-49.972656-111.398438-111.398438-111.398438-28.027343 0-54.8125 10.449219-75.421874 29.417969-16.117188 14.832031-27.363282 33.847656-32.613282 54.742187-11.867187-2.507812-24.105468-3.828125-36.5625-3.828125-12.460937 0-24.695312 1.320313-36.5625 3.828125-5.253906-20.894531-16.5-39.910156-32.617187-54.746094-20.609375-18.96875-47.394531-29.414062-75.417969-29.414062-61.425781 0-111.3984375 49.972656-111.3984375 111.398438 0 23.019531 6.9648435 45.117187 20.1406255 63.90625 8.40625 11.980468 18.9375 22.050781 31.035156 29.828124-10.34375 11.402344-18.691406 24.519532-24.652344 38.792969l-6.976562-2.222656c-7.890626-2.511719-16.328126 1.851563-18.84375 9.746094-2.511719 7.894531 1.851562 16.332031 9.746093 18.84375l7.667969 2.4375c-.945312 5.402343-1.570312 10.898437-1.851562 16.46875h-1.269532c-8.285156 0-14.99999975 6.714843-14.99999975 15 0 8.28125 6.71484375 15 14.99999975 15h3.035156c.898438 5.222656 2.101563 10.347656 3.582032 15.351562l-11.164063 3.554688c-7.898437 2.511719-12.257812 10.945312-9.746093 18.839843 2.03125 6.382813 7.933593 10.457032 14.289062 10.457032 1.507812 0 3.039062-.230469 4.554688-.710938l13.792968-4.390625c23.226563 41.351563 67.511719 69.359375 118.222656 69.359375h25.167969v25.167969c0 30.417969 24.746094 55.167969 55.164063 55.167969h48.203125c30.417969 0 55.164062-24.75 55.164062-55.167969v-25.167969h25.164063c50.710937 0 94.996094-28.003906 118.222656-69.359375l13.792969 4.390625c1.511719.480469 3.046875.710938 4.550781.710938 6.359375 0 12.261719-4.074219 14.292969-10.457032 2.511719-7.894531-1.851563-16.328124-9.746094-18.839843l-11.160156-3.554688c1.480469-5.003906 2.679687-10.128906 3.578125-15.355469h3.03125c8.285156 0 15-6.714843 15-15 0-8.28125-6.714844-15-15-15h-1.261719c-.285156-5.566406-.910156-11.0625-1.851563-16.464843zm-100.945313-240.292969c44.882813 0 81.398438 36.515625 81.398438 81.398438 0 30.882812-17.84375 59.226562-45.117188 72.867187-8.570312-5.847656-17.894531-10.769531-27.863281-14.59375-20.019531-35.46875-51.121093-62.1875-87.683593-76.792969 8.480468-36.046875 41.320312-62.878906 79.265624-62.878906zm-370.59375 81.398438c0-44.882813 36.515626-81.398438 81.394532-81.398438 37.941406 0 70.785156 26.832031 79.265625 62.878906-36.558594 14.605469-67.664063 41.324219-87.679688 76.796875-9.972656 3.820313-19.292969 8.746094-27.867187 14.589844-27.269532-13.640625-45.113282-41.984375-45.113282-72.867187zm17.039063 170.539062 22.816406 7.257812h-23.542969c.160157-2.441406.402344-4.859374.726563-7.257812zm1.566406 37.257812h21.253907l-19.652344 6.253907c-.597656-2.058594-1.132813-4.144531-1.601563-6.253907zm158.125 137.632813v-25.167969h34.265625v50.335938h-9.101562c-13.875 0-25.164063-11.289063-25.164063-25.167969zm98.53125 0c0 13.878906-11.289062 25.167969-25.164062 25.167969h-9.101563v-50.335938h34.265625zm55.164063-55.167969h-15.195313c3.886719-7.550781 6.097657-16.101562 6.097657-25.164062 0-8.285156-6.714844-15-15-15-8.28125 0-15 6.714844-15 15 0 13.875-11.289063 25.164062-25.167969 25.164062-13.875 0-25.164063-11.289062-25.164063-25.164062 0-8.285156-6.714844-15-15-15s-15 6.714844-15 15c0 13.875-11.289062 25.164062-25.167968 25.164062-13.875 0-25.164063-11.289062-25.164063-25.164062 0-8.285156-6.714844-15-15-15s-15 6.714844-15 15c0 9.0625 2.210937 17.613281 6.101563 25.164062h-15.203126c-37.277343 0-70.101562-19.433594-88.871093-48.699218l108.316406-34.472657c6.222656-1.980469 10.449219-7.761719 10.449219-14.292969s-4.226563-12.3125-10.449219-14.292968l-115.753906-36.835938c6.792969-15.195312 17.101562-28.609375 30.113281-39.082031.597656-.394531 1.164062-.839844 1.703125-1.316406 9.1875-7.089844 19.640625-12.753907 31.105469-16.578125 3.691406-1.234375 6.757812-3.847656 8.558594-7.300782 18.113281-34.757812 48.765624-60.058593 84.800781-71.558593.144531-.042969.285156-.085938.429687-.132813 14.011719-4.421875 28.824219-6.765625 44.03125-6.765625 15.152344 0 29.917969 2.328125 43.886719 6.726563.21875.066406.433594.136718.652344.199218 35.996093 11.511719 66.621093 36.800782 84.71875 71.53125 1.800781 3.453126 4.867187 6.066407 8.558593 7.300782 11.519532 3.839844 22.015626 9.539062 31.234376 16.671875.488281.429687 1 .828125 1.535156 1.1875 13.03125 10.480469 23.355468 23.910156 30.152344 39.117187l-115.519532 36.765625c-3.453125 1.039063-6.515625 3.3125-8.496094 6.566407-3.597656 5.910156-2.6875 13.511718 2.207032 18.40625 1.777344 1.777343 3.933594 3.042968 6.253906 3.746093l108.117188 34.410157c-18.769532 29.265624-51.59375 48.699218-88.871094 48.699218zm101.359375-76.207031-19.660157-6.257813h21.261719c-.472656 2.109376-1.003906 4.195313-1.601562 6.257813zm3.894531-36.257813h-23.542969l22.8125-7.257812c.324219 2.398438.570313 4.816406.730469 7.257812zm0 0"/></svg>