<svg viewBox="0 -80 512 512" xmlns="http://www.w3.org/2000/svg"><path d="m432.734375 112.46875h-77.101563c-14.351562-37.089844-40.945312-68.128906-74.800781-88.136719-.417969-.304687-.859375-.59375-1.316406-.859375-.4375-.25-.882813-.480468-1.335937-.683594-25.539063-14.496093-55.039063-22.789062-86.445313-22.789062-31.410156 0-60.917969 8.296875-86.460937 22.796875-.445313.203125-.886719.425781-1.320313.675781-.457031.265625-.894531.550782-1.3125.855469-51.714844 30.5625-86.496094 86.855469-86.570313 151.132813v.054687.03125.121094 65.332031h-1.070312c-8.285156 0-15 6.714844-15 15s6.714844 15 15 15h1.066406v65.335938c0 8.28125 6.714844 15 15 15h40.167969c30.417969 0 55.167969-24.75 55.167969-55.167969v-25.167969h130.664062v65.335938c0 8.28125 6.714844 15 15 15h80.335938c8.28125 0 15-6.71875 15-15v-40.167969c0-9.0625-2.210938-17.617188-6.101563-25.167969h71.433594c43.707031 0 79.265625-35.558594 79.265625-79.265625s-35.558594-79.265625-79.265625-79.265625zm-321.332031 128.53125h-65.335938v-50.484375h65.335938c5.359375 0 10.308594-2.859375 12.988281-7.5l35.835937-62.074219h63.015626l35.835937 62.074219c2.679687 4.640625 7.632813 7.5 12.988281 7.5h65.335938v50.484375zm225.214844-80.484375h-55.890626l-31.503906-54.574219 27.855469-48.246094c32.664063 23.699219 55.152344 60.605469 59.539063 102.820313zm-85.503907-117.851563-27.871093 48.277344h-63.015626l-27.871093-48.277344c18.144531-8.132812 38.242187-12.664062 59.378906-12.664062s41.234375 4.53125 59.378906 12.664062zm-144.722656 15.03125 27.855469 48.246094-31.503906 54.570313h-55.890626c4.382813-42.210938 26.875-79.121094 59.539063-102.816407zm-9.988281 238.472657c0 13.875-11.292969 25.167969-25.167969 25.167969h-25.167969v-50.335938h50.335938zm241 25.167969h-50.335938v-50.335938h25.167969c13.875 0 25.167969 11.289062 25.167969 25.167969zm95.332031-80.335938h-65.332031v-65.332031c0-.039063-.003906-.082031-.003906-.121094 0-.011719.003906-.023437.003906-.03125 0-.019531-.003906-.035156-.003906-.054687-.011719-11.277344-1.105469-22.304688-3.15625-32.992188h68.492187c27.164063 0 49.265625 22.101562 49.265625 49.265625s-22.101562 49.265625-49.265625 49.265625zm0 0"/><path d="m432.730469 160.667969c-3.949219 0-7.808594 1.597656-10.601563 4.390625-2.800781 2.796875-4.398437 6.660156-4.398437 10.609375s1.597656 7.820312 4.398437 10.609375c2.792969 2.789062 6.660156 4.390625 10.601563 4.390625 3.949219 0 7.820312-1.601563 10.609375-4.390625 2.789062-2.789063 4.390625-6.660156 4.390625-10.609375s-1.601563-7.8125-4.390625-10.609375c-2.789063-2.792969-6.660156-4.390625-10.609375-4.390625zm0 0"/></svg>